<svg width="279" height="274" viewBox="0 0 279 274" fill="none" xmlns="http://www.w3.org/2000/svg">
<path d="M1.56338 272.155C4.2196 257.69 14.8037 241.74 24.9602 231.296C33.8439 222.16 45.2095 215.176 56.2235 208.913C84.5871 192.784 117.269 190.914 148.91 187.5C182.703 183.854 218.121 175.264 246.945 156.552C257.532 149.679 266.857 141.091 273.365 130.16C279.559 119.758 278.281 108.207 275.949 96.8195C270.828 71.8146 255.032 57.1232 231.798 48.3182C216.172 42.3964 185.371 38.7198 176.555 57.8422C170.944 70.0103 176.616 78.0489 189.547 74.3866C223.232 64.8458 245.041 34.0389 251.198 1.17622" stroke="#F5851E" stroke-width="2" stroke-linecap="round" stroke-dasharray="10 10"/>
</svg>
