<svg width="70" height="80" viewBox="0 0 70 80" fill="none" xmlns="http://www.w3.org/2000/svg">
<g clip-path="url(#clip0_1605_20480)">
<path d="M18.8674 31.9591C29.8439 24.0875 40.8203 16.2159 51.7967 8.34426C54.9086 6.10964 58.037 3.88828 61.1218 1.61147C61.5471 1.30289 61.8604 0.720786 61.2584 0.432174C60.6564 0.143562 59.6967 0.584567 59.2003 0.930826C48.1188 8.66341 37.2079 16.6557 26.2315 24.5273L16.8668 31.2418C16.42 31.5602 16.1033 32.1802 16.7284 32.4739C17.3535 32.7675 18.3652 32.321 18.8815 31.95L18.8674 31.9591Z" fill="#F5851E"/>
<path d="M58.9016 1.51969C60.3662 17.0742 61.6823 32.6447 62.8415 48.2245C63.1758 52.6744 63.4878 57.1268 63.7998 61.5791C63.881 62.7576 66.694 61.87 66.6292 60.9151C65.5591 45.3258 64.333 29.7532 62.9575 14.1891C62.5638 9.74552 62.1545 5.2961 61.7385 0.854899C61.6267 -0.327829 58.8153 0.574671 58.9091 1.51889L58.9016 1.51969Z" fill="#F5851E"/>
<path d="M16.5516 32.1639C29.635 39.1093 41.7624 47.6524 54.0122 55.9344C57.4473 58.2561 60.903 60.5606 64.3903 62.8091C64.9475 63.1702 65.757 62.9406 66.2954 62.6349C66.5649 62.4858 67.4943 61.7625 66.9371 61.4015C54.392 53.3089 42.3234 44.474 29.5592 36.7205C25.9907 34.5558 22.3716 32.4793 18.6826 30.5229C17.8543 30.0857 15.3239 31.5066 16.5508 32.1565L16.5516 32.1639Z" fill="#F5851E"/>
<path d="M58.6617 1.11748C51.258 11.3336 44.0173 21.6675 36.9378 32.1044C34.9197 35.0783 32.9179 38.0655 30.9244 41.0594C30.536 41.642 31.3917 41.8434 31.7953 41.8226C32.4827 41.7865 33.2243 41.414 33.6061 40.8395C40.5958 30.3372 47.7395 19.9385 55.0535 9.65688C57.1367 6.72855 59.2355 3.80605 61.3426 0.890192C61.7615 0.311795 60.853 0.108633 60.4717 0.126965C59.762 0.165483 59.074 0.547307 58.6609 1.11005L58.6617 1.11748Z" fill="#F5851E"/>
<path d="M55.5434 3.36711C51.8143 14.9851 48.32 26.6907 45.0879 38.4583C44.1681 41.7954 43.2715 45.1375 42.3905 48.4855C42.2189 49.1275 43.381 49.033 43.6973 48.969C44.2919 48.8377 45.0558 48.4627 45.2274 47.8207C48.3276 36.0146 51.6678 24.273 55.2642 12.6091C56.2845 9.29878 57.3212 6.00174 58.3802 2.70232C58.5824 2.06451 57.36 2.15798 57.0735 2.21876C56.4499 2.36074 55.7529 2.7285 55.5434 3.36711Z" fill="#F5851E"/>
<path d="M41.9925 47.8455C40.2869 51.0715 38.4199 54.1945 36.6106 57.364C36.2874 57.9246 37.0144 58.1172 37.4321 58.0874C38.0808 58.0404 38.7892 57.709 39.1503 57.1518C41.1284 54.0845 42.8786 50.8537 44.5842 47.6278C44.8901 47.0465 44.1862 46.8589 43.7463 46.8911C43.1355 46.9415 42.2984 47.2642 41.9925 47.8455Z" fill="#F5851E"/>
<path d="M31.9725 42.0503C33.296 48.0173 34.4542 54.0545 36.0056 59.9744C36.2471 60.8953 38.835 59.9416 38.654 58.9541C37.5428 52.9344 36.032 46.9726 34.7002 40.999C34.4967 40.0816 31.7405 41.0082 31.9725 42.0503Z" fill="#F5851E"/>
<path d="M40.4976 58.2917C41.6297 57.0057 42.8119 55.7669 44.0443 54.5753C45.2767 53.3837 46.5638 52.3516 47.8572 51.1685C48.2397 50.8119 48.1071 50.3453 47.6223 50.2394C47.0065 50.1026 46.2925 50.382 45.8051 50.7423C44.3628 51.7986 43.0336 53.0682 41.7458 54.3033C40.458 55.5384 39.2972 56.7673 38.1519 58.0698C38.011 58.2277 37.8441 58.4935 37.9357 58.7166C38.0272 58.9398 38.3223 59.0283 38.535 59.0506C39.1965 59.1225 40.0559 58.7974 40.5051 58.2909L40.4976 58.2917Z" fill="#F5851E"/>
<path d="M42.6149 53.7141C43.4082 52.7725 44.2097 51.8375 45.0022 50.8884C45.1282 50.7321 45.2842 50.505 45.2009 50.2885C45.1175 50.072 44.8464 49.9959 44.6492 49.9795C44.316 49.9551 43.9692 50.0148 43.6675 50.1448C43.3659 50.2749 43.0443 50.4296 42.8313 50.6853C42.0223 51.6211 41.2216 52.5635 40.4209 53.506C40.2875 53.663 40.1323 53.8976 40.2156 54.1141C40.2989 54.3305 40.5783 54.4133 40.7754 54.4297C41.1087 54.4541 41.4629 54.3936 41.772 54.2628C42.0811 54.132 42.4019 53.9698 42.6149 53.7141Z" fill="#F5851E"/>
<path d="M39.3966 55.4633L39.1435 55.6257C38.8623 55.8061 39.3263 55.5084 39.1013 55.6527L40.7732 56.2474C42.0854 54.4687 43.4634 52.7431 44.8735 51.0365C44.9996 50.8803 45.1556 50.6532 45.0722 50.4367C44.9889 50.2202 44.7177 50.1441 44.5206 50.1276C43.9069 50.0807 43.1088 50.3466 42.6952 50.8343C41.2596 52.5135 39.8988 54.2598 38.5948 56.0452C38.4903 56.1916 38.2913 56.4384 38.3961 56.645C38.4821 56.8162 38.6403 56.8894 38.8249 56.9297C39.4243 57.0533 40.073 56.7959 40.5546 56.4512C40.7432 56.3183 40.9334 56.2002 41.1154 56.0755C41.4588 55.8433 41.8119 55.2119 41.235 55.0182C40.6046 54.8153 39.9095 55.1303 39.3892 55.4641L39.3966 55.4633Z" fill="#F5851E"/>
<path d="M44.032 52.5547C44.5119 51.564 44.9919 50.5733 45.4479 49.5702C45.532 49.3733 45.5559 49.1754 45.3882 49.013C45.2205 48.8507 44.8575 48.8295 44.6346 48.8534C44.278 48.8916 43.913 48.9909 43.602 49.1745C43.3473 49.322 43.0743 49.5091 42.9379 49.7791C42.4349 50.7648 41.964 51.7695 41.4849 52.7677C41.3934 52.9653 41.3777 53.1699 41.5454 53.3322C41.7131 53.4946 42.0835 53.515 42.3064 53.4911C42.6704 53.4521 43.0429 53.352 43.3531 53.161C43.6078 53.0135 43.8956 52.8248 44.0312 52.5473L44.032 52.5547Z" fill="#F5851E"/>
<path d="M43.4493 50.8377C43.903 51.2849 44.3568 51.7322 44.8246 52.1705C44.915 52.2434 45.0254 52.2917 45.1467 52.3012C45.286 52.3389 45.4295 52.3461 45.5781 52.3301C45.7564 52.311 45.9257 52.2778 46.0926 52.2224C46.2751 52.1728 46.4478 52.1016 46.6107 52.009L46.8986 51.8204C47.0517 51.7063 47.1801 51.5723 47.2748 51.4044L47.3433 51.2017C47.3586 51.0648 47.3162 50.9491 47.2085 50.8555C46.7688 50.3992 46.315 49.9519 45.8695 49.5112C45.7708 49.4316 45.6687 49.39 45.5474 49.3805C45.4081 49.3428 45.2572 49.3364 45.1086 49.3524C44.9303 49.3715 44.7536 49.4055 44.5867 49.4609C44.4041 49.5105 44.2314 49.5817 44.0611 49.6751L43.7732 49.8637C43.6201 49.9778 43.4925 50.1192 43.3896 50.2805L43.3145 50.4915C43.2999 50.6358 43.3424 50.7515 43.4501 50.8451L43.4493 50.8377Z" fill="#F5851E"/>
<path d="M7.71715 43.54L4.63956 47.3564C4.51354 47.5127 4.35674 47.7324 4.44006 47.9488C4.5218 48.1505 4.79456 48.2414 4.98347 48.2513C5.30929 48.2764 5.64864 48.2175 5.95031 48.0875C6.25198 47.9575 6.57435 47.8102 6.77253 47.556L9.85755 43.7388C9.98358 43.5826 10.1404 43.3629 10.057 43.1464C9.97532 42.9448 9.70256 42.8538 9.51364 42.844C9.18782 42.8188 8.84847 42.8777 8.5468 43.0078C8.24513 43.1378 7.92277 43.285 7.72458 43.5392L7.71715 43.54Z" fill="#F5851E"/>
<path d="M19.3207 48.4489L13.7102 55.4147C13.5842 55.571 13.4274 55.7906 13.5115 56.0145C13.5933 56.2162 13.866 56.3072 14.0632 56.3236C14.662 56.3721 15.4832 56.1112 15.8745 55.626L21.4924 48.6594C21.6185 48.5032 21.7745 48.2761 21.6911 48.0596C21.6086 47.8505 21.3366 47.767 21.1395 47.7505C20.5407 47.702 19.7121 47.9637 19.3215 48.4564L19.3207 48.4489Z" fill="#F5851E"/>
<path d="M43.1236 61.9091C41.3941 64.2811 39.6653 66.6605 37.9432 69.0316C37.818 69.1953 37.653 69.4084 37.7445 69.6315C37.8271 69.8406 38.1064 69.9233 38.2962 69.9405C38.8719 69.984 39.7541 69.7316 40.1216 69.2339C41.8585 66.8612 43.5873 64.4818 45.3168 62.1098C45.4413 61.9387 45.6071 61.7331 45.5222 61.5017C45.4396 61.2927 45.1594 61.2025 44.9623 61.186C44.3791 61.1434 43.4895 61.3965 43.122 61.8943L43.1236 61.9091Z" fill="#F5851E"/>
<path d="M62.6988 66.5741C60.9406 68.6786 59.1899 70.7823 57.4316 72.8869C57.3056 73.0431 57.1422 73.271 57.2255 73.4875C57.3088 73.704 57.5882 73.7868 57.7846 73.7958C58.3983 73.8427 59.2038 73.576 59.6174 73.0884C61.3831 70.983 63.1413 68.8785 64.8995 66.774C65.0329 66.6169 65.1881 66.3824 65.1048 66.1659C65.0215 65.9494 64.7421 65.8666 64.545 65.8502C63.9238 65.8041 63.1109 66.0716 62.698 66.5666L62.6988 66.5741Z" fill="#F5851E"/>
</g>
<defs>
<clipPath id="clip0_1605_20480">
<rect width="62" height="73" fill="white" transform="translate(0 6.60938) rotate(-6.11896)"/>
</clipPath>
</defs>
</svg>
